# xmcd
#
# Track frame offsets:
#	150
#	12825
#	25952
#	39450
#	50195
#	61670
#	91497
#	103052
#	114450
#	126032
#	135530
#	151365
#	162147
#	174825
#	186442
#
# Disc length: 2936 seconds
#
# Revision: 1
# Processed by: cddbd v1.5.2PL0 Copyright (c) Steve Scherf et al.
# Submitted via: EasyCDDAExtractor 12.0.5.1
#
DISCID=c00b760f
DTITLE=Charley Pride - Crystal Chandeliers
DYEAR=1996
DGENRE=Country
TTITLE0=Crystal Chandeliers
TTITLE1=Kaw-Liga
TTITLE2=(I'm So) Afraid Of Losing You Again
TTITLE3=Oklahoma Morning
TTITLE4=It's Gonna Take A Little Bit Longer
TTITLE5=Medley
TTITLE6=Shutters And Boards
TTITLE7=The Happiness Of Having You
TTITLE8=My Eyes Can Only See As far As You
TTITLE9=Kiss An Angel Good Morning
TTITLE10=Let Me Live In The Light Of His Love
TTITLE11=Mississippi Cotton Pickin' Delta Town
TTITLE12=Help Me Make It Through The Night
TTITLE13=Louisiana Man
TTITLE14=Medley 2
EXTD=Delta Music Ltd (UK), CD6016, Compilation released 1996. Includes live co
EXTD=ncert performances.
EXTT0=
EXTT1=
EXTT2=
EXTT3=
EXTT4=
EXTT5=
EXTT6=
EXTT7=
EXTT8=
EXTT9=
EXTT10=
EXTT11=
EXTT12=
EXTT13=
EXTT14=
PLAYORDER=
